<?xml version="1.0" standalone="no"?><!DOCTYPE svg PUBLIC "-//W3C//DTD SVG 1.1//EN" "http://www.w3.org/Graphics/SVG/1.1/DTD/svg11.dtd"><svg t="1569147017033" class="icon" viewBox="0 0 1024 1024" version="1.1" xmlns="http://www.w3.org/2000/svg" p-id="15818" xmlns:xlink="http://www.w3.org/1999/xlink" width="200" height="200"><defs><style type="text/css"></style></defs><path d="M813.4 1000.2c-3.9 0-7.7-0.9-11.3-2.8L513.2 845.5 224.3 997.4c-8.2 4.3-18.1 3.6-25.6-1.8s-11.2-14.6-9.7-23.8l55.2-321.7L10.5 422.3c-6.6-6.5-9-16.1-6.1-24.9 2.9-8.8 10.5-15.2 19.6-16.5L347 334 491.4 41.3c8.2-16.6 35.4-16.6 43.6 0l79.4 161c5.9 12 1 26.6-11 32.5-12 5.9-26.6 1-32.5-11L513.2 107 384.9 367c-3.5 7.2-10.4 12.1-18.3 13.3L79.7 421.9l207.6 202.4c5.7 5.6 8.3 13.6 7 21.5l-49 285.8 256.6-134.9c7.1-3.7 15.5-3.7 22.6 0l256.6 134.9-49-285.8c-1.3-7.9 1.3-15.9 7-21.5l207.6-202.4-286.9-41.7c-13.3-1.9-22.5-14.3-20.6-27.5 1.9-13.3 14.3-22.5 27.5-20.6l335.6 48.8c9.2 1.3 16.8 7.7 19.6 16.5 2.9 8.8 0.5 18.4-6.1 24.9L782.2 650.1l55.2 321.7c1.6 9.1-2.2 18.3-9.7 23.8-4.3 3-9.3 4.6-14.3 4.6z" fill="#707070" p-id="15819"></path></svg>